<?xml version="1.0" encoding="utf-8"?>
<!-- Generator: Adobe Illustrator 16.0.0, SVG Export Plug-In . SVG Version: 6.00 Build 0)  -->
<!DOCTYPE svg PUBLIC "-//W3C//DTD SVG 1.1//EN" "http://www.w3.org/Graphics/SVG/1.1/DTD/svg11.dtd">
<svg version="1.1" id="Layer_1" xmlns="http://www.w3.org/2000/svg" xmlns:xlink="http://www.w3.org/1999/xlink" x="0px" y="0px"
	 width="70px" height="70px" viewBox="0 0 70 70" enable-background="new 0 0 70 70" xml:space="preserve">
<g>
	<circle fill="#E5E5E5" cx="35" cy="34.999" r="35"/>
	<path opacity="0.1" d="M70,34.999c0-2.103-0.195-4.16-0.551-6.161L56.514,16.01L45.916,36.303L31.654,49.408l-3.038,0.852
		l17.844,17.809C60.16,63.321,70,50.313,70,34.999z"/>
	<g>
		<path fill="#414042" d="M56.514,43.25c0,0.191-0.168,0.346-0.374,0.346H13.862c-0.207,0-0.375-0.154-0.375-0.346V16.356
			c0-0.191,0.168-0.347,0.375-0.347H56.14c0.206,0,0.374,0.155,0.374,0.347V43.25z"/>
		<rect x="14.961" y="17.109" fill="#FFFFFF" width="40.078" height="21.167"/>
		<g>
			<path fill="#F4F4F4" d="M13.487,39.432v3.818c0,0.191,0.168,0.346,0.375,0.346H56.14c0.206,0,0.374-0.154,0.374-0.346v-3.818
				H13.487z"/>
		</g>
		<circle fill="#FFFFFF" stroke="#8C8C8C" stroke-width="0.5" stroke-miterlimit="10" cx="35" cy="41.514" r="0.896"/>
		<path fill="#414042" d="M40.903,49.375h-0.028c-2.084-0.117-2.21-1.303-2.241-2.063c-0.035-0.929,0-3.716,0-3.716h-2.486h-2.294
			h-2.488c0,0,0.038,2.787,0,3.716c-0.031,0.761-0.156,1.946-2.239,2.063h-0.029c-0.266,0-0.481,0.197-0.481,0.442v0.071
			c0,0.245,0.215,0.444,0.481,0.444h0.029h4.727h2.294h4.728h0.028c0.266,0,0.481-0.199,0.481-0.444v-0.071
			C41.385,49.572,41.169,49.375,40.903,49.375z"/>
	</g>
	<g>
		<path fill="#1765AB" d="M51.228,27.036c0-3.625-2.938-6.563-6.563-6.563v6.563H51.228z"/>
		<g>
			<path fill="#3FBFB0" d="M43.79,21.786c-3.625,0-6.563,2.938-6.563,6.563c0,3.624,2.938,6.563,6.563,6.563
				c1.813,0,3.453-0.734,4.64-1.922l-4.64-4.64V21.786z"/>
		</g>
		<path fill="#2A398B" d="M44.665,27.911l4.64,4.64c1.188-1.188,1.923-2.828,1.923-4.64H44.665z"/>
	</g>
	<rect x="17.626" y="33.309" fill="#6D6D6D" width="16.304" height="0.583"/>
	<rect x="29.798" y="22.659" fill="#2A398B" width="2.966" height="10.649"/>
	<rect x="24.295" y="25.575" fill="#1765AB" width="2.966" height="7.733"/>
	<rect x="18.792" y="28.492" fill="#3FBFB0" width="2.966" height="4.816"/>
</g>
</svg>
