<?xml version="1.0" encoding="utf-8"?>
<!-- Generator: Adobe Illustrator 16.0.0, SVG Export Plug-In . SVG Version: 6.00 Build 0)  -->
<!DOCTYPE svg PUBLIC "-//W3C//DTD SVG 1.1//EN" "http://www.w3.org/Graphics/SVG/1.1/DTD/svg11.dtd">
<svg version="1.1" id="Layer_1" xmlns="http://www.w3.org/2000/svg" xmlns:xlink="http://www.w3.org/1999/xlink" x="0px" y="0px"
	 width="40px" height="40px" viewBox="0 0 40 40" enable-background="new 0 0 40 40" xml:space="preserve">
<g>
	<g>
		<polygon fill="#FFFFFF" points="16.776,27.748 9.144,20.114 10.558,18.7 16.776,24.92 29.443,12.253 30.857,13.667 		"/>
	</g>
	<g>
		<path fill="#FFFFFF" d="M20,40C8.972,40,0,31.028,0,20C0,8.973,8.972,0,20,0s20,8.973,20,20C40,31.028,31.028,40,20,40z M20,2
			C10.075,2,2,10.075,2,20c0,9.926,8.075,18,18,18s18-8.074,18-18C38,10.075,29.925,2,20,2z"/>
	</g>
</g>
</svg>
