<?xml version="1.0" encoding="utf-8"?>
<!-- Generator: Adobe Illustrator 16.0.0, SVG Export Plug-In . SVG Version: 6.00 Build 0)  -->
<!DOCTYPE svg PUBLIC "-//W3C//DTD SVG 1.1//EN" "http://www.w3.org/Graphics/SVG/1.1/DTD/svg11.dtd">
<svg version="1.1" id="Layer_1" xmlns="http://www.w3.org/2000/svg" xmlns:xlink="http://www.w3.org/1999/xlink" x="0px" y="0px"
	 width="70px" height="70px" viewBox="0 0 70 70" enable-background="new 0 0 70 70" xml:space="preserve">
<g display="none">
	<circle display="inline" fill="#E5E5E5" cx="35" cy="34.999" r="35"/>
	<path display="inline" opacity="0.1" d="M70,34.999c0-2.103-0.195-4.16-0.551-6.161L56.514,16.01L45.916,36.303L31.654,49.408
		l-3.038,0.852l17.844,17.809C60.16,63.321,70,50.313,70,34.999z"/>
	<g display="inline">
		<path fill="#414042" d="M56.514,43.25c0,0.191-0.168,0.346-0.374,0.346H13.862c-0.207,0-0.375-0.154-0.375-0.346V16.356
			c0-0.191,0.168-0.347,0.375-0.347H56.14c0.206,0,0.374,0.155,0.374,0.347V43.25z"/>
		<rect x="14.961" y="17.109" fill="#FFFFFF" width="40.078" height="21.167"/>
		<g>
			<path fill="#F4F4F4" d="M13.487,39.432v3.818c0,0.191,0.168,0.346,0.375,0.346H56.14c0.206,0,0.374-0.154,0.374-0.346v-3.818
				H13.487z"/>
		</g>
		<circle fill="#FFFFFF" stroke="#8C8C8C" stroke-width="0.5" stroke-miterlimit="10" cx="35" cy="41.514" r="0.896"/>
		<path fill="#414042" d="M40.903,49.375h-0.028c-2.084-0.117-2.21-1.303-2.241-2.063c-0.035-0.929,0-3.716,0-3.716h-2.486h-2.294
			h-2.488c0,0,0.038,2.787,0,3.716c-0.031,0.761-0.156,1.946-2.239,2.063h-0.029c-0.266,0-0.481,0.197-0.481,0.442v0.071
			c0,0.245,0.215,0.444,0.481,0.444h0.029h4.727h2.294h4.728h0.028c0.266,0,0.481-0.199,0.481-0.444v-0.071
			C41.385,49.572,41.169,49.375,40.903,49.375z"/>
	</g>
	<g display="inline">
		<path fill="#1765AB" d="M51.228,27.036c0-3.625-2.938-6.563-6.563-6.563v6.563H51.228z"/>
		<g>
			<path fill="#3FBFB0" d="M43.79,21.786c-3.625,0-6.563,2.938-6.563,6.563c0,3.624,2.938,6.563,6.563,6.563
				c1.813,0,3.453-0.734,4.64-1.922l-4.64-4.64V21.786z"/>
		</g>
		<path fill="#2A398B" d="M44.665,27.911l4.64,4.64c1.188-1.188,1.923-2.828,1.923-4.64H44.665z"/>
	</g>
	<rect x="17.626" y="33.309" display="inline" fill="#6D6D6D" width="16.304" height="0.583"/>
	<rect x="29.798" y="22.659" display="inline" fill="#2A398B" width="2.966" height="10.649"/>
	<rect x="24.295" y="25.575" display="inline" fill="#1765AB" width="2.966" height="7.733"/>
	<rect x="18.792" y="28.492" display="inline" fill="#3FBFB0" width="2.966" height="4.816"/>
</g>
<circle fill="#E5E5E5" cx="35" cy="35" r="35"/>
<path opacity="0.1" d="M69.676,39.723L43.75,13.609L30.381,36.376L18.198,49.354l20.31,20.473
	C54.629,68.222,67.521,55.676,69.676,39.723z"/>
<g>
	<path fill="#133749" d="M44.473,48.645c0,0.758-0.613,1.371-1.371,1.371H19.36c-0.756,0-1.37-0.613-1.37-1.371V18.511
		c0-0.757,0.613-1.37,1.37-1.37h23.741c0.758,0,1.371,0.613,1.371,1.37V48.645z"/>
	<path fill="#225B83" d="M43.102,13.608H19.36c-0.756,0-1.37,0.613-1.37,1.37v0.843v29.292v2.738c0-0.756,0.613-1.369,1.37-1.369
		h23.741c0.748,0,1.354-0.6,1.367-1.344l0.004-0.002v-0.023V15.821v-0.843C44.473,14.221,43.859,13.608,43.102,13.608z"/>
	<path fill="#D6D6D6" d="M43.125,48.209c0-0.48,0.1-0.938,0.279-1.355c-0.107-0.027-0.219-0.046-0.334-0.046H19.729
		c-0.744,0-1.346,0.603-1.346,1.347v0.111c0,0.744,0.602,1.348,1.346,1.348H43.07c0.115,0,0.227-0.02,0.334-0.047
		C43.225,49.15,43.125,48.691,43.125,48.209z"/>
	<line fill="none" stroke="#1A4763" stroke-miterlimit="10" x1="20.707" y1="13.608" x2="20.707" y2="46.482"/>
	<line fill="none" stroke="#FFFFFF" stroke-width="2" stroke-miterlimit="10" x1="25.733" y1="18.991" x2="39.086" y2="18.991"/>
	<line fill="none" stroke="#FFFFFF" stroke-width="2" stroke-miterlimit="10" x1="25.733" y1="22.413" x2="39.086" y2="22.413"/>
	<line fill="none" stroke="#FFFFFF" stroke-width="2" stroke-miterlimit="10" x1="25.733" y1="25.835" x2="39.086" y2="25.835"/>
</g>
<g>
	<circle fill="#FFFFFF" cx="47.225" cy="40.532" r="10.77"/>
	<g>
		<polygon fill="#225B83" points="50.699,40.462 48.895,40.462 48.895,33.373 45.555,33.373 45.555,40.462 43.75,40.462 
			47.225,44.456 		"/>
		<rect x="42.646" y="45.802" fill="#225B83" width="9.154" height="1.616"/>
	</g>
</g>
</svg>
