<?xml version="1.0" encoding="utf-8"?>
<!-- Generator: Adobe Illustrator 16.0.0, SVG Export Plug-In . SVG Version: 6.00 Build 0)  -->
<!DOCTYPE svg PUBLIC "-//W3C//DTD SVG 1.1//EN" "http://www.w3.org/Graphics/SVG/1.1/DTD/svg11.dtd">
<svg version="1.1" id="Layer_1" xmlns="http://www.w3.org/2000/svg" xmlns:xlink="http://www.w3.org/1999/xlink" x="0px" y="0px"
	 width="40px" height="40px" viewBox="0 0 40 40" enable-background="new 0 0 40 40" xml:space="preserve">
<g>
	<path fill="#FFFFFF" d="M2,4.083h30v13.458c0.718,0.356,1.391,0.788,2,1.299V2.083H0v24h17.604c0.029-0.687,0.126-1.354,0.287-2H2
		V4.083z"/>
	<path fill="#FFFFFF" d="M40.04,37.543l-6.146-6.146c1.054-1.354,1.688-3.052,1.688-4.897c0-4.411-3.589-8-8-8s-8,3.589-8,8
		s3.589,8,8,8c1.846,0,3.542-0.635,4.897-1.688l6.146,6.146L40.04,37.543z M21.583,26.5c0-3.309,2.691-6,6-6s6,2.691,6,6
		s-2.691,6-6,6S21.583,29.809,21.583,26.5z"/>
	<rect x="6" y="8.083" fill="#FFFFFF" width="22" height="2"/>
	<rect x="6" y="13.083" fill="#FFFFFF" width="22" height="2"/>
</g>
</svg>
