<?xml version="1.0" encoding="utf-8"?>
<!-- Generator: Adobe Illustrator 16.0.0, SVG Export Plug-In . SVG Version: 6.00 Build 0)  -->
<!DOCTYPE svg PUBLIC "-//W3C//DTD SVG 1.1//EN" "http://www.w3.org/Graphics/SVG/1.1/DTD/svg11.dtd">
<svg version="1.1" id="Layer_1" xmlns="http://www.w3.org/2000/svg" xmlns:xlink="http://www.w3.org/1999/xlink" x="0px" y="0px"
	 width="40px" height="40px" viewBox="0 0 40 40" enable-background="new 0 0 40 40" xml:space="preserve">
<g>
	<path fill="#FFFFFF" d="M30,20c-5.514,0-10,4.487-10,10.002C20,35.515,24.486,40,30,40s10-4.485,10-9.998
		C40,24.487,35.514,20,30,20z M30,38c-4.411,0-8-3.588-8-7.998C22,25.59,25.589,22,30,22s8,3.59,8,8.002C38,34.412,34.411,38,30,38z
		"/>
	<path fill="#FFFFFF" d="M30,24.543c-0.553,0-1,0.447-1,1v4.043l-3.207,3.207c-0.391,0.391-0.391,1.023,0,1.414
		c0.195,0.195,0.451,0.293,0.707,0.293s0.512-0.098,0.707-0.293l3.499-3.499c0.093-0.093,0.166-0.203,0.217-0.326
		C30.974,30.26,31,30.13,31,30v-4.457C31,24.99,30.553,24.543,30,24.543z"/>
</g>
<g>
	<polygon fill="#FFFFFF" points="22,0 0,0 0,40 19,40 19,38 2,38 2,2 21,2 21,11 30,11 30,15 32,15 32,10 	"/>
	<rect x="6" y="15" fill="#FFFFFF" width="16" height="2"/>
	<rect x="6" y="21" fill="#FFFFFF" width="9" height="2"/>
</g>
</svg>
