<?xml version="1.0" encoding="utf-8"?>
<!-- Generator: Adobe Illustrator 16.0.0, SVG Export Plug-In . SVG Version: 6.00 Build 0)  -->
<!DOCTYPE svg PUBLIC "-//W3C//DTD SVG 1.1//EN" "http://www.w3.org/Graphics/SVG/1.1/DTD/svg11.dtd">
<svg version="1.1" id="Layer_1" xmlns="http://www.w3.org/2000/svg" xmlns:xlink="http://www.w3.org/1999/xlink" x="0px" y="0px"
	 width="120px" height="120px" viewBox="0 0 120 120" enable-background="new 0 0 120 120" xml:space="preserve">
<g>
	<circle fill="#E5E5E5" cx="60" cy="59.97" r="60"/>
	<path opacity="0.1" d="M117.086,78.451L65.928,27.294L47.965,61.139L27.079,83.388l36.46,36.47
		C88.67,118.395,109.639,101.471,117.086,78.451z"/>
	<g>
		<rect x="50.025" y="51.087" fill="#DDA466" width="10.954" height="6.255"/>
		<path fill="#E8E8E8" d="M48.929,57.022h13.209l7.648,1.767l-4.012,15.664l-8.491,3.889c0,0-13.489,0.195-13.583,0
			c-0.094-0.193-1.714-8.137-1.714-8.137L48.929,57.022z"/>
		<path fill="#235B83" d="M83.744,66.345c0-3.073-2.563-5.567-5.719-5.567l-1.531-0.363c0.014-0.009,0.023-0.019,0.035-0.029
			l-14.223-3.362l-0.012,0.035l-0.156-0.035l-4.28,16.347L56.513,63.5l1.712-5.601h-0.042l-2.628-0.86l-2.669,0.86h-0.042
			l1.712,5.601l-1.346,9.869l-4.281-16.347l-0.155,0.035l-0.013-0.035l-14.223,3.362c0.012,0.01,0.024,0.02,0.037,0.029
			l-1.532,0.363c-3.157,0-5.717,2.494-5.717,5.567l-0.247,17.043h18.442h0.557h6.766h0.042h2.267h0.167h0.43h0.167h2.267h0.042
			h6.768h0.557H83.99L83.744,66.345z"/>
		<polygon fill="#FFFFFF" points="48.929,57.039 49.953,52.988 55.555,57.039 52.812,61.057 		"/>
		<polygon fill="#FFFFFF" points="62.182,57.039 61.158,52.988 55.555,57.039 58.297,61.057 		"/>
		<path fill="#E2B27F" d="M67.408,37.757c0,8.976-5.307,16.253-11.853,16.253c-6.548,0-11.853-7.277-11.853-16.253
			c0-8.979,5.305-12.821,11.853-12.821C62.102,24.936,67.408,28.778,67.408,37.757z"/>
		<path fill="#3A210F" d="M66.859,28.883h-0.002c-0.611-1.349-2.568-5.298-8.828-5.502v-0.013h-4.043
			c-7.382,0-9.312,4.416-9.813,5.758c-1.871,3.437-0.177,11.024-0.177,11.024c-0.094-5.423,2.569-6.042,3.664-6.517
			c1.092-0.477,5.993-0.381,10.131,0.142c4.14,0.524,4.947-2.757,4.947-2.757s4.236,4.328,4.377,9.133
			C67.115,40.15,68.854,31.226,66.859,28.883z"/>
	</g>
	<g>
		<path fill="#FFFFFF" d="M78.939,50.991c-5.617,0-10.186,4.568-10.186,10.185v3.766h2.086v-3.766c0-4.466,3.633-8.099,8.1-8.099
			c4.463,0,8.096,3.633,8.096,8.099v3.766h2.088v-3.766C89.123,55.559,84.553,50.991,78.939,50.991z"/>
	</g>
	<g>
		<path fill="#4C4C4C" d="M80.35,76.932v5.565h-2.824v-5.565c-1.146-0.535-1.949-1.691-1.949-3.043c0-1.855,1.504-3.363,3.363-3.363
			c1.855,0,3.361,1.508,3.361,3.363C82.301,75.24,81.5,76.396,80.35,76.932z"/>
	</g>
	<g>
		<path fill="#F4C916" d="M90.604,65.085h-23.33c-1.283,0-2.32,1.149-2.32,2.565v17.723c0,1.418,1.037,2.566,2.32,2.566h23.33
			c1.281,0,2.318-1.148,2.318-2.566V67.65C92.922,66.234,91.885,65.085,90.604,65.085z M80.35,76.932v5.565h-2.824v-5.565
			c-1.146-0.535-1.949-1.691-1.949-3.043c0-1.855,1.504-3.363,3.363-3.363c1.855,0,3.361,1.508,3.361,3.363
			C82.301,75.24,81.5,76.396,80.35,76.932z"/>
	</g>
	
		<ellipse transform="matrix(0.9181 -0.3963 0.3963 0.9181 -13.2208 20.7922)" fill="#E2B27F" cx="43.706" cy="42.39" rx="1.109" ry="3.241"/>
	
		<ellipse transform="matrix(-0.9182 -0.3961 0.3961 -0.9182 112.503 108.0147)" fill="#E2B27F" cx="67.405" cy="42.39" rx="1.109" ry="3.241"/>
</g>
</svg>
